HIERARCHY
ROOT Hips
{
	OFFSET 0.000000 0.000000 0.000000
	CHANNELS 6 Xposition Yposition Zposition Zrotation Yrotation Xrotation
	JOINT LHipJoint
	{
		OFFSET 0.000000 0.000000 0.000000
		CHANNELS 3 Zrotation Yrotation Xrotation
		JOINT LeftUpLeg
		{
			OFFSET 0 2. 0
			CHANNELS 3 Zrotation Yrotation Xrotation
			JOINT LeftLeg
			{
				OFFSET -1. 2. 0
				CHANNELS 3 Zrotation Yrotation Xrotation
				End Site
				{
					OFFSET 0.000000 0.000000 0.000000
				}
			}
		}
	}
}

MOTION
Frames: 75
Frame Time: 0.041667
0.000000 0.000000 0.000000 347.447963 325.582484 -416.496486 105.962052 -1126.937509 348.873800 4.321500 0.381655 -167.791419 0.020387 0.020387 0.020387 
0.000000 0.000000 0.000000 346.904782 325.259329 -416.092695 106.282884 -1126.636398 349.477422 3.267261 -0.266123 -167.266109 0.020388 0.020388 0.020388 
0.000000 0.000000 0.000000 346.361600 324.936174 -415.688903 106.603716 -1126.335288 350.081044 2.213022 -0.913900 -166.740799 0.020389 0.020389 0.020389 
0.000000 0.000000 0.000000 345.818419 324.613019 -415.285112 106.924548 -1126.034178 350.684666 1.158783 -1.561678 -166.215489 0.020390 0.020390 0.020390 
0.000000 0.000000 0.000000 345.275237 324.289864 -414.881320 107.245380 -1125.733068 351.288288 0.104544 -2.209456 -165.690179 0.020391 0.020391 0.020391 
0.000000 0.000000 0.000000 344.732055 323.966709 -414.477529 107.566212 -1125.431957 351.891910 -0.949695 -2.857233 -165.164869 0.020392 0.020392 0.020392 
0.000000 0.000000 0.000000 344.188874 323.643554 -414.073737 107.887044 -1125.130847 352.495532 -2.003934 -3.505011 -164.639559 0.020393 0.020393 0.020393 
0.000000 0.000000 0.000000 343.645692 323.320399 -413.669946 108.207876 -1124.829737 353.099154 -3.058173 -4.152788 -164.114249 0.020394 0.020394 0.020394 
0.000000 0.000000 0.000000 343.102511 322.997244 -413.266155 108.528708 -1124.528627 353.702776 -4.112412 -4.800566 -163.588938 0.020395 0.020395 0.020395 
0.000000 0.000000 0.000000 342.559329 322.674089 -412.862363 108.849540 -1124.227517 354.306398 -5.166651 -5.448344 -163.063628 0.020396 0.020396 0.020396 
0.000000 0.000000 0.000000 342.016147 322.350934 -412.458572 109.170372 -1123.926406 354.910020 -6.220890 -6.096121 -162.538318 0.020397 0.020397 0.020397 
0.000000 0.000000 0.000000 341.472966 322.027779 -412.054780 109.491205 -1123.625296 355.513642 -7.275129 -6.743899 -162.013008 0.020398 0.020398 0.020398 
0.000000 0.000000 0.000000 340.929784 321.704624 -411.650989 109.812037 -1123.324186 356.117264 -8.329368 -7.391676 -161.487698 0.020399 0.020399 0.020399 
0.000000 0.000000 0.000000 340.386603 321.381469 -411.247198 110.132869 -1123.023076 356.720886 -9.383607 -8.039454 -160.962388 0.020400 0.020400 0.020400 
0.000000 0.000000 0.000000 339.843421 321.058314 -410.843406 110.453701 -1122.721965 357.324508 -10.437846 -8.687232 -160.437078 0.020401 0.020401 0.020401 
0.000000 0.000000 0.000000 339.300240 320.735159 -410.439615 110.774533 -1122.420855 357.928130 -11.492085 -9.335009 -159.911768 0.020402 0.020402 0.020402 
0.000000 0.000000 0.000000 338.757058 320.412004 -410.035823 111.095365 -1122.119745 358.531752 -12.546324 -9.982787 -159.386458 0.020403 0.020403 0.020403 
0.000000 0.000000 0.000000 338.213876 320.088849 -409.632032 111.416197 -1121.818635 359.135374 -13.600563 -10.630564 -158.861148 0.020404 0.020404 0.020404 
0.000000 0.000000 0.000000 337.670695 319.765694 -409.228240 111.737029 -1121.517524 359.738996 -14.654802 -11.278342 -158.335838 0.020405 0.020405 0.020405 
0.000000 0.000000 0.000000 337.127513 319.442540 -408.824449 112.057861 -1121.216414 360.342618 -15.709041 -11.926120 -157.810528 0.020405 0.020405 0.020405 
0.000000 0.000000 0.000000 336.584332 319.119385 -408.420658 112.378693 -1120.915304 360.946240 -16.763280 -12.573897 -157.285218 0.020406 0.020406 0.020406 
0.000000 0.000000 0.000000 336.041150 318.796230 -408.016866 112.699525 -1120.614194 361.549862 -17.817519 -13.221675 -156.759907 0.020407 0.020407 0.020407 
0.000000 0.000000 0.000000 335.497968 318.473075 -407.613075 113.020357 -1120.313084 362.153484 -18.871758 -13.869452 -156.234597 0.020408 0.020408 0.020408 
0.000000 0.000000 0.000000 334.954787 318.149920 -407.209283 113.341190 -1120.011973 362.757106 -19.925997 -14.517230 -155.709287 0.020409 0.020409 0.020409 
0.000000 0.000000 0.000000 334.411605 317.826765 -406.805492 113.662022 -1119.710863 363.360728 -20.980236 -15.165008 -155.183977 0.020410 0.020410 0.020410 
0.000000 0.000000 0.000000 333.868424 317.503610 -406.401701 113.982854 -1119.409753 363.964350 -22.034475 -15.812785 -154.658667 0.020411 0.020411 0.020411 
0.000000 0.000000 0.000000 333.325242 317.180455 -405.997909 114.303686 -1119.108643 364.567972 -23.088714 -16.460563 -154.133357 0.020412 0.020412 0.020412 
0.000000 0.000000 0.000000 332.782060 316.857300 -405.594118 114.624518 -1118.807532 365.171594 -24.142953 -17.108340 -153.608047 0.020413 0.020413 0.020413 
0.000000 0.000000 0.000000 332.238879 316.534145 -405.190326 114.945350 -1118.506422 365.775216 -25.197192 -17.756118 -153.082737 0.020414 0.020414 0.020414 
0.000000 0.000000 0.000000 331.695697 316.210990 -404.786535 115.266182 -1118.205312 366.378838 -26.251431 -18.403895 -152.557427 0.020415 0.020415 0.020415 
0.000000 0.000000 0.000000 331.152516 315.887835 -404.382744 115.587014 -1117.904202 366.982460 -27.305670 -19.051673 -152.032117 0.020416 0.020416 0.020416 
0.000000 0.000000 0.000000 330.473019 316.556750 -401.571778 116.078951 -1115.891858 369.613761 -29.743262 -19.451825 -150.411518 0.020435 0.020435 0.020435 
0.000000 0.000000 0.000000 329.793522 317.225665 -398.760812 116.570887 -1113.879513 372.245062 -32.180854 -19.851977 -148.790919 0.020454 0.020454 0.020454 
0.000000 0.000000 0.000000 329.114025 317.894581 -395.949847 117.062824 -1111.867169 374.876364 -34.618446 -20.252129 -147.170320 0.020473 0.020473 0.020473 
0.000000 0.000000 0.000000 328.434528 318.563496 -393.138881 117.554760 -1109.854825 377.507665 -37.056038 -20.652281 -145.549721 0.020492 0.020492 0.020492 
0.000000 0.000000 0.000000 327.755031 319.232411 -390.327916 118.046697 -1107.842481 380.138966 -39.493630 -21.052433 -143.929123 0.020511 0.020511 0.020511 
0.000000 0.000000 0.000000 327.075534 319.901326 -387.516950 118.538633 -1105.830136 382.770267 -41.931222 -21.452585 -142.308524 0.020530 0.020530 0.020530 
0.000000 0.000000 0.000000 326.396037 320.570241 -384.705985 119.030570 -1103.817792 385.401569 -44.368815 -21.852737 -140.687925 0.020548 0.020548 0.020548 
0.000000 0.000000 0.000000 325.716541 321.239157 -381.895019 119.522506 -1101.805448 388.032870 -46.806407 -22.252889 -139.067326 0.020567 0.020567 0.020567 
0.000000 0.000000 0.000000 325.037044 321.908072 -379.084053 120.014443 -1099.793104 390.664171 -49.243999 -22.653041 -137.446727 0.020586 0.020586 0.020586 
0.000000 0.000000 0.000000 324.357547 322.576987 -376.273088 120.506379 -1097.780759 393.295472 -51.681591 -23.053193 -135.826129 0.020605 0.020605 0.020605 
0.000000 0.000000 0.000000 323.678050 323.245902 -373.462122 120.998316 -1095.768415 395.926773 -54.119183 -23.453345 -134.205530 0.020624 0.020624 0.020624 
0.000000 0.000000 0.000000 322.998553 323.914818 -370.651157 121.490253 -1093.756071 398.558075 -56.556775 -23.853497 -132.584931 0.020643 0.020643 0.020643 
0.000000 0.000000 0.000000 322.319056 324.583733 -367.840191 121.982189 -1091.743727 401.189376 -58.994367 -24.253649 -130.964332 0.020662 0.020662 0.020662 
0.000000 0.000000 0.000000 321.639559 325.252648 -365.029226 122.474126 -1089.731383 403.820677 -61.431960 -24.653801 -129.343733 0.020681 0.020681 0.020681 
0.000000 0.000000 0.000000 320.960062 325.921563 -362.218260 122.966062 -1087.719038 406.451978 -63.869552 -25.053953 -127.723134 0.020700 0.020700 0.020700 
0.000000 0.000000 0.000000 320.280565 326.590478 -359.407294 123.457999 -1085.706694 409.083280 -66.307144 -25.454105 -126.102536 0.020719 0.020719 0.020719 
0.000000 0.000000 0.000000 319.601069 327.259394 -356.596329 123.949935 -1083.694350 411.714581 -68.744736 -25.854257 -124.481937 0.020738 0.020738 0.020738 
0.000000 0.000000 0.000000 318.921572 327.928309 -353.785363 124.441872 -1081.682006 414.345882 -71.182328 -26.254409 -122.861338 0.020757 0.020757 0.020757 
0.000000 0.000000 0.000000 318.242075 328.597224 -350.974398 124.933808 -1079.669661 416.977183 -73.619920 -26.654561 -121.240739 0.020776 0.020776 0.020776 
0.000000 0.000000 0.000000 317.562578 329.266139 -348.163432 125.425745 -1077.657317 419.608484 -76.057512 -27.054713 -119.620140 0.020795 0.020795 0.020795 
0.000000 0.000000 0.000000 316.883081 329.935054 -345.352467 125.917681 -1075.644973 422.239786 -78.495104 -27.454865 -117.999542 0.020814 0.020814 0.020814 
0.000000 0.000000 0.000000 316.203584 330.603970 -342.541501 126.409618 -1073.632629 424.871087 -80.932697 -27.855017 -116.378943 0.020832 0.020832 0.020832 
0.000000 0.000000 0.000000 315.524087 331.272885 -339.730536 126.901554 -1071.620285 427.502388 -83.370289 -28.255169 -114.758344 0.020851 0.020851 0.020851 
0.000000 0.000000 0.000000 314.844590 331.941800 -336.919570 127.393491 -1069.607940 430.133689 -85.807881 -28.655321 -113.137745 0.020870 0.020870 0.020870 
0.000000 0.000000 0.000000 314.165093 332.610715 -334.108604 127.885427 -1067.595596 432.764991 -88.245473 -29.055473 -111.517146 0.020889 0.020889 0.020889 
0.000000 0.000000 0.000000 313.485596 333.279631 -331.297639 128.377364 -1065.583252 435.396292 -90.683065 -29.455625 -109.896547 0.020908 0.020908 0.020908 
0.000000 0.000000 0.000000 312.806100 333.948546 -328.486673 128.869300 -1063.570908 438.027593 -93.120657 -29.855777 -108.275949 0.020927 0.020927 0.020927 
0.000000 0.000000 0.000000 312.126603 334.617461 -325.675708 129.361237 -1061.558563 440.658894 -95.558249 -30.255929 -106.655350 0.020946 0.020946 0.020946 
0.000000 0.000000 0.000000 311.447106 335.286376 -322.864742 129.853174 -1059.546219 443.290195 -97.995842 -30.656081 -105.034751 0.020965 0.020965 0.020965 
0.000000 0.000000 0.000000 310.767609 335.955291 -320.053777 130.345110 -1057.533875 445.921497 -100.433434 -31.056233 -103.414152 0.020984 0.020984 0.020984 
0.000000 0.000000 0.000000 310.491007 337.659753 -321.092662 131.371506 -1055.957591 445.157940 -98.304159 -27.693920 -103.592191 0.019294 0.019294 0.019294 
0.000000 0.000000 0.000000 310.214405 339.364214 -322.131547 132.397902 -1054.381307 444.394383 -96.174883 -24.331608 -103.770229 0.017604 0.017604 0.017604 
0.000000 0.000000 0.000000 309.937803 341.068676 -323.170432 133.424297 -1052.805023 443.630827 -94.045608 -20.969296 -103.948268 0.015914 0.015914 0.015914 
0.000000 0.000000 0.000000 309.661200 342.773137 -324.209317 134.450693 -1051.228739 442.867270 -91.916333 -17.606983 -104.126307 0.014225 0.014225 0.014225 
0.000000 0.000000 0.000000 309.384598 344.477599 -325.248202 135.477089 -1049.652455 442.103713 -89.787058 -14.244671 -104.304345 0.012535 0.012535 0.012535 
0.000000 0.000000 0.000000 309.107996 346.182060 -326.287087 136.503484 -1048.076171 441.340157 -87.657783 -10.882359 -104.482384 0.010845 0.010845 0.010845 
0.000000 0.000000 0.000000 308.831394 347.886522 -327.325972 137.529880 -1046.499887 440.576600 -85.528507 -7.520047 -104.660423 0.009155 0.009155 0.009155 
0.000000 0.000000 0.000000 308.554792 349.590983 -328.364858 138.556276 -1044.923603 439.813043 -83.399232 -4.157734 -104.838461 0.007465 0.007465 0.007465 
0.000000 0.000000 0.000000 308.278190 351.295445 -329.403743 139.582672 -1043.347319 439.049487 -81.269957 -0.795422 -105.016500 0.005775 0.005775 0.005775 
0.000000 0.000000 0.000000 308.001588 352.999906 -330.442628 140.609067 -1041.771035 438.285930 -79.140682 2.566890 -105.194538 0.004085 0.004085 0.004085 
0.000000 0.000000 0.000000 307.724986 354.704368 -331.481513 141.635463 -1040.194751 437.522374 -77.011407 5.929203 -105.372577 0.002396 0.002396 0.002396 
0.000000 0.000000 0.000000 307.448383 356.408829 -332.520398 142.661859 -1038.618467 436.758817 -74.882132 9.291515 -105.550616 0.000706 0.000706 0.000706 
0.000000 0.000000 0.000000 307.171781 358.113291 -333.559283 143.688255 -1037.042182 435.995260 -72.752856 12.653827 -105.728654 -0.000984 -0.000984 -0.000984 
0.000000 0.000000 0.000000 306.895179 359.817752 -334.598168 144.714650 -1035.465898 435.231704 -70.623581 16.016140 -105.906693 -0.002674 -0.002674 -0.002674 
